<svg width="1200" height="630" viewBox="0 0 1200 630" fill="none" xmlns="http://www.w3.org/2000/svg">
  <rect width="1200" height="630" fill="#f4efe4"/>
  <path d="M0 68H1200" stroke="#1b2233" stroke-width="4"/>
  <path d="M0 76H1200" stroke="#1b2233" stroke-opacity=".18" stroke-width="2"/>
  <path d="M86 508C196 452 302 442 404 478C506 514 624 514 756 452C888 390 1008 396 1116 470" stroke="#29456e" stroke-opacity=".28" stroke-width="3"/>
  <circle cx="206" cy="472" r="10" fill="#29456e" fill-opacity=".7"/>
  <circle cx="316" cy="444" r="7" stroke="#29456e" stroke-width="3"/>
  <circle cx="430" cy="490" r="9" fill="#29456e" fill-opacity=".5"/>
  <circle cx="548" cy="468" r="8" fill="#29456e" fill-opacity=".62"/>
  <circle cx="668" cy="420" r="14" fill="#b0322a"/>
  <circle cx="786" cy="450" r="8" stroke="#29456e" stroke-width="3"/>
  <circle cx="902" cy="410" r="10" fill="#29456e" fill-opacity=".45"/>
  <circle cx="1018" cy="446" r="7" fill="#29456e" fill-opacity=".72"/>
  <text x="78" y="46" fill="#4a5266" font-family="Libre Franklin, Arial, sans-serif" font-size="20" font-weight="600">THE SAME WORD</text>
  <text x="1054" y="46" fill="#b0322a" font-family="Libre Franklin, Arial, sans-serif" font-size="20" font-weight="600">NO. 1</text>
  <text x="78" y="245" fill="#1b2233" font-family="Fraunces, Georgia, serif" font-size="138" font-weight="900">AMERICA</text>
  <text x="84" y="318" fill="#4a5266" font-family="Fraunces, Georgia, serif" font-size="36" font-style="italic" font-weight="300">We all say it. We do not all mean the same thing.</text>
  <text x="84" y="382" fill="#1b2233" font-family="Libre Franklin, Arial, sans-serif" font-size="26" font-weight="400">Choose five phrases, then see the distance between definitions.</text>
  <rect x="82" y="528" width="312" height="46" fill="#1b2233"/>
  <text x="108" y="559" fill="#f4efe4" font-family="Libre Franklin, Arial, sans-serif" font-size="18" font-weight="600">brandonwalowitz.com/thesameword</text>
</svg>
